solid OpenSCAD_Model
  facet normal 1 -0 0
    outer loop
      vertex 80 0 24
      vertex 80 50 0
      vertex 80 50 24
    endloop
  endfacet
  facet normal 1 0 0
    outer loop
      vertex 80 50 0
      vertex 80 0 24
      vertex 80 0 0
    endloop
  endfacet
  facet normal 0 0 1
    outer loop
      vertex 80 50 24
      vertex 78 48 24
      vertex 80 0 24
    endloop
  endfacet
  facet normal 0 0 1
    outer loop
      vertex 80 50 24
      vertex 2 48 24
      vertex 78 48 24
    endloop
  endfacet
  facet normal 0 0 1
    outer loop
      vertex 2 48 24
      vertex 0 50 24
      vertex 2 2 24
    endloop
  endfacet
  facet normal -0 0 1
    outer loop
      vertex 0 50 24
      vertex 2 48 24
      vertex 80 50 24
    endloop
  endfacet
  facet normal -0 0 1
    outer loop
      vertex 78 2 24
      vertex 80 0 24
      vertex 78 48 24
    endloop
  endfacet
  facet normal -0 0 1
    outer loop
      vertex 2 2 24
      vertex 80 0 24
      vertex 78 2 24
    endloop
  endfacet
  facet normal 0 0 1
    outer loop
      vertex 2 2 24
      vertex 0 0 24
      vertex 80 0 24
    endloop
  endfacet
  facet normal 0 0 1
    outer loop
      vertex 0 0 24
      vertex 2 2 24
      vertex 0 50 24
    endloop
  endfacet
  facet normal 0 0 -1
    outer loop
      vertex 0 0 0
      vertex 80 50 0
      vertex 80 0 0
    endloop
  endfacet
  facet normal -0 0 -1
    outer loop
      vertex 80 50 0
      vertex 0 0 0
      vertex 0 50 0
    endloop
  endfacet
  facet normal -1 0 0
    outer loop
      vertex 0 0 0
      vertex 0 50 24
      vertex 0 50 0
    endloop
  endfacet
  facet normal -1 -0 0
    outer loop
      vertex 0 50 24
      vertex 0 0 0
      vertex 0 0 24
    endloop
  endfacet
  facet normal 0 1 -0
    outer loop
      vertex 80 50 0
      vertex 0 50 24
      vertex 80 50 24
    endloop
  endfacet
  facet normal 0 1 0
    outer loop
      vertex 0 50 24
      vertex 80 50 0
      vertex 0 50 0
    endloop
  endfacet
  facet normal 0 -1 0
    outer loop
      vertex 0 0 0
      vertex 80 0 24
      vertex 0 0 24
    endloop
  endfacet
  facet normal 0 -1 -0
    outer loop
      vertex 80 0 24
      vertex 0 0 0
      vertex 80 0 0
    endloop
  endfacet
  facet normal -1 0 0
    outer loop
      vertex 78 2 2
      vertex 78 48 24
      vertex 78 48 2
    endloop
  endfacet
  facet normal -1 -0 0
    outer loop
      vertex 78 48 24
      vertex 78 2 2
      vertex 78 2 24
    endloop
  endfacet
  facet normal -0 0 1
    outer loop
      vertex 2 48 2
      vertex 78 2 2
      vertex 78 48 2
    endloop
  endfacet
  facet normal 0 0 1
    outer loop
      vertex 78 2 2
      vertex 2 48 2
      vertex 2 2 2
    endloop
  endfacet
  facet normal 1 -0 0
    outer loop
      vertex 2 2 24
      vertex 2 48 2
      vertex 2 48 24
    endloop
  endfacet
  facet normal 1 0 0
    outer loop
      vertex 2 48 2
      vertex 2 2 24
      vertex 2 2 2
    endloop
  endfacet
  facet normal 0 -1 0
    outer loop
      vertex 2 48 2
      vertex 78 48 24
      vertex 2 48 24
    endloop
  endfacet
  facet normal 0 -1 -0
    outer loop
      vertex 78 48 24
      vertex 2 48 2
      vertex 78 48 2
    endloop
  endfacet
  facet normal 0 1 -0
    outer loop
      vertex 78 2 2
      vertex 2 2 24
      vertex 78 2 24
    endloop
  endfacet
  facet normal 0 1 0
    outer loop
      vertex 2 2 24
      vertex 78 2 2
      vertex 2 2 2
    endloop
  endfacet
endsolid OpenSCAD_Model
