solid OpenSCAD_Model
  facet normal 1 -0 0
    outer loop
      vertex 77.65 2.35 5
      vertex 77.65 47.65 2
      vertex 77.65 47.65 5
    endloop
  endfacet
  facet normal 1 0 0
    outer loop
      vertex 77.65 47.65 2
      vertex 77.65 2.35 5
      vertex 77.65 2.35 2
    endloop
  endfacet
  facet normal 0 0 1
    outer loop
      vertex 77.65 47.65 5
      vertex 75.65 45.65 5
      vertex 77.65 2.35 5
    endloop
  endfacet
  facet normal 0 0 1
    outer loop
      vertex 77.65 47.65 5
      vertex 4.35 45.65 5
      vertex 75.65 45.65 5
    endloop
  endfacet
  facet normal 0 0 1
    outer loop
      vertex 4.35 45.65 5
      vertex 2.35 47.65 5
      vertex 4.35 4.35 5
    endloop
  endfacet
  facet normal -0 0 1
    outer loop
      vertex 2.35 47.65 5
      vertex 4.35 45.65 5
      vertex 77.65 47.65 5
    endloop
  endfacet
  facet normal -0 0 1
    outer loop
      vertex 75.65 4.35 5
      vertex 77.65 2.35 5
      vertex 75.65 45.65 5
    endloop
  endfacet
  facet normal -0 0 1
    outer loop
      vertex 4.35 4.35 5
      vertex 77.65 2.35 5
      vertex 75.65 4.35 5
    endloop
  endfacet
  facet normal 0 0 1
    outer loop
      vertex 4.35 4.35 5
      vertex 2.35 2.35 5
      vertex 77.65 2.35 5
    endloop
  endfacet
  facet normal 0 0 1
    outer loop
      vertex 2.35 2.35 5
      vertex 4.35 4.35 5
      vertex 2.35 47.65 5
    endloop
  endfacet
  facet normal 0 0 1
    outer loop
      vertex 80 50 2
      vertex 77.65 47.65 2
      vertex 80 0 2
    endloop
  endfacet
  facet normal 0 0 1
    outer loop
      vertex 80 50 2
      vertex 2.35 47.65 2
      vertex 77.65 47.65 2
    endloop
  endfacet
  facet normal 0 0 1
    outer loop
      vertex 2.35 47.65 2
      vertex 0 50 2
      vertex 2.35 2.35 2
    endloop
  endfacet
  facet normal -0 0 1
    outer loop
      vertex 0 50 2
      vertex 2.35 47.65 2
      vertex 80 50 2
    endloop
  endfacet
  facet normal -0 0 1
    outer loop
      vertex 77.65 2.35 2
      vertex 80 0 2
      vertex 77.65 47.65 2
    endloop
  endfacet
  facet normal -0 0 1
    outer loop
      vertex 2.35 2.35 2
      vertex 80 0 2
      vertex 77.65 2.35 2
    endloop
  endfacet
  facet normal 0 0 1
    outer loop
      vertex 2.35 2.35 2
      vertex 0 0 2
      vertex 80 0 2
    endloop
  endfacet
  facet normal 0 0 1
    outer loop
      vertex 0 0 2
      vertex 2.35 2.35 2
      vertex 0 50 2
    endloop
  endfacet
  facet normal -0 0 1
    outer loop
      vertex 4.35 45.65 2
      vertex 75.65 4.35 2
      vertex 75.65 45.65 2
    endloop
  endfacet
  facet normal 0 0 1
    outer loop
      vertex 75.65 4.35 2
      vertex 4.35 45.65 2
      vertex 4.35 4.35 2
    endloop
  endfacet
  facet normal -1 0 0
    outer loop
      vertex 2.35 2.35 2
      vertex 2.35 47.65 5
      vertex 2.35 47.65 2
    endloop
  endfacet
  facet normal -1 -0 0
    outer loop
      vertex 2.35 47.65 5
      vertex 2.35 2.35 2
      vertex 2.35 2.35 5
    endloop
  endfacet
  facet normal 0 1 -0
    outer loop
      vertex 77.65 47.65 2
      vertex 2.35 47.65 5
      vertex 77.65 47.65 5
    endloop
  endfacet
  facet normal 0 1 0
    outer loop
      vertex 2.35 47.65 5
      vertex 77.65 47.65 2
      vertex 2.35 47.65 2
    endloop
  endfacet
  facet normal 0 -1 0
    outer loop
      vertex 2.35 2.35 2
      vertex 77.65 2.35 5
      vertex 2.35 2.35 5
    endloop
  endfacet
  facet normal 0 -1 -0
    outer loop
      vertex 77.65 2.35 5
      vertex 2.35 2.35 2
      vertex 77.65 2.35 2
    endloop
  endfacet
  facet normal -1 0 0
    outer loop
      vertex 75.65 4.35 2
      vertex 75.65 45.65 5
      vertex 75.65 45.65 2
    endloop
  endfacet
  facet normal -1 -0 0
    outer loop
      vertex 75.65 45.65 5
      vertex 75.65 4.35 2
      vertex 75.65 4.35 5
    endloop
  endfacet
  facet normal 1 -0 0
    outer loop
      vertex 4.35 4.35 5
      vertex 4.35 45.65 2
      vertex 4.35 45.65 5
    endloop
  endfacet
  facet normal 1 0 0
    outer loop
      vertex 4.35 45.65 2
      vertex 4.35 4.35 5
      vertex 4.35 4.35 2
    endloop
  endfacet
  facet normal 0 -1 0
    outer loop
      vertex 4.35 45.65 2
      vertex 75.65 45.65 5
      vertex 4.35 45.65 5
    endloop
  endfacet
  facet normal 0 -1 -0
    outer loop
      vertex 75.65 45.65 5
      vertex 4.35 45.65 2
      vertex 75.65 45.65 2
    endloop
  endfacet
  facet normal 0 1 -0
    outer loop
      vertex 75.65 4.35 2
      vertex 4.35 4.35 5
      vertex 75.65 4.35 5
    endloop
  endfacet
  facet normal 0 1 0
    outer loop
      vertex 4.35 4.35 5
      vertex 75.65 4.35 2
      vertex 4.35 4.35 2
    endloop
  endfacet
  facet normal 1 -0 0
    outer loop
      vertex 80 0 2
      vertex 80 50 0
      vertex 80 50 2
    endloop
  endfacet
  facet normal 1 0 0
    outer loop
      vertex 80 50 0
      vertex 80 0 2
      vertex 80 0 0
    endloop
  endfacet
  facet normal 0 0 -1
    outer loop
      vertex 0 0 0
      vertex 80 50 0
      vertex 80 0 0
    endloop
  endfacet
  facet normal -0 0 -1
    outer loop
      vertex 80 50 0
      vertex 0 0 0
      vertex 0 50 0
    endloop
  endfacet
  facet normal -1 0 0
    outer loop
      vertex 0 0 0
      vertex 0 50 2
      vertex 0 50 0
    endloop
  endfacet
  facet normal -1 -0 0
    outer loop
      vertex 0 50 2
      vertex 0 0 0
      vertex 0 0 2
    endloop
  endfacet
  facet normal 0 1 -0
    outer loop
      vertex 80 50 0
      vertex 0 50 2
      vertex 80 50 2
    endloop
  endfacet
  facet normal 0 1 0
    outer loop
      vertex 0 50 2
      vertex 80 50 0
      vertex 0 50 0
    endloop
  endfacet
  facet normal 0 -1 0
    outer loop
      vertex 0 0 0
      vertex 80 0 2
      vertex 0 0 2
    endloop
  endfacet
  facet normal 0 -1 -0
    outer loop
      vertex 80 0 2
      vertex 0 0 0
      vertex 80 0 0
    endloop
  endfacet
endsolid OpenSCAD_Model
